<svg width="152" height="184" viewBox="0 0 152 184" fill="none" xmlns="http://www.w3.org/2000/svg">
<path d="M59.4005 135.518L59.6426 136.228L60.1505 136.054V135.518H59.4005ZM16.9166 84.2042H16.1666V84.2232L16.1676 84.2421L16.9166 84.2042ZM45.2392 49.0178L45.2097 48.2684L44.4892 48.2967V49.0178H45.2392ZM92.904 82.7381H93.654V82.6654L93.64 82.5941L92.904 82.7381ZM2.12378 183.899V164.473H0.623779V183.899H2.12378ZM2.12378 164.473C2.12378 162.682 2.58608 159.857 3.96852 157.287C5.34073 154.736 7.59928 152.464 11.2112 151.643L10.8786 150.18C6.75362 151.118 4.17661 153.734 2.64749 156.577C1.12859 159.4 0.623779 162.477 0.623779 164.473H2.12378ZM11.2112 151.643C18.9971 149.873 46.7702 140.618 59.6426 136.228L59.1584 134.808C46.2411 139.214 18.5665 148.432 10.8786 150.18L11.2112 151.643ZM60.1505 135.518V128.187H58.6505V135.518H60.1505ZM59.4005 127.437C52.6419 127.437 42.6186 125.008 34.0851 118.386C25.5794 111.785 18.5181 100.991 17.6657 84.1662L16.1676 84.2421C17.0422 101.504 24.3148 112.702 33.1654 119.571C41.988 126.418 52.3432 128.937 59.4005 128.937V127.437ZM17.6666 84.2042V60.0136H16.1666V84.2042H17.6666ZM17.6666 60.0136C17.6666 40.8808 24.7949 26.4008 35.4484 16.6527C46.114 6.89338 60.3517 1.8426 74.6075 1.66143C88.8629 1.48026 103.092 6.16866 113.75 15.8303C124.395 25.4806 131.529 40.1394 131.529 60.0136H133.029C133.029 39.7533 125.743 24.6777 114.758 14.719C103.785 4.77159 89.1737 -0.0238134 74.5884 0.161548C60.0035 0.346906 45.4006 5.513 34.4358 15.546C23.4587 25.5903 16.1666 40.478 16.1666 60.0136H17.6666ZM131.529 60.0136V183.899H133.029V60.0136H131.529ZM60.1505 128.187V119.024H58.6505V128.187H60.1505ZM59.7716 118.372C55.245 115.795 45.9892 106.689 45.9892 91.1682H44.4892C44.4892 107.315 54.1151 116.878 59.0294 119.676L59.7716 118.372ZM45.9892 91.1682C45.9892 91.1372 45.9892 91.1063 45.9892 91.0753C45.9892 91.0444 45.9892 91.0134 45.9892 90.9824C45.9892 90.9515 45.9892 90.9205 45.9892 90.8895C45.9892 90.8585 45.9892 90.8275 45.9892 90.7965C45.9892 90.7654 45.9892 90.7344 45.9892 90.7033C45.9892 90.6723 45.9892 90.6412 45.9892 90.6102C45.9892 90.5791 45.9892 90.548 45.9892 90.5169C45.9892 90.4858 45.9892 90.4547 45.9892 90.4236C45.9892 90.3925 45.9892 90.3614 45.9892 90.3302C45.9892 90.2991 45.9892 90.2679 45.9892 90.2368C45.9892 90.2056 45.9892 90.1744 45.9892 90.1432C45.9892 90.112 45.9892 90.0808 45.9892 90.0496C45.9892 90.0184 45.9892 89.9872 45.9892 89.956C45.9892 89.9247 45.9892 89.8935 45.9892 89.8622C45.9892 89.831 45.9892 89.7997 45.9892 89.7685C45.9892 89.7372 45.9892 89.7059 45.9892 89.6746C45.9892 89.6433 45.9892 89.612 45.9892 89.5807C45.9892 89.5494 45.9892 89.518 45.9892 89.4867C45.9892 89.4554 45.9892 89.424 45.9892 89.3926C45.9892 89.3613 45.9892 89.3299 45.9892 89.2985C45.9892 89.2672 45.9892 89.2358 45.9892 89.2044C45.9892 89.173 45.9892 89.1416 45.9892 89.1101C45.9892 89.0787 45.9892 89.0473 45.9892 89.0158C45.9892 88.9844 45.9892 88.953 45.9892 88.9215C45.9892 88.89 45.9892 88.8586 45.9892 88.8271C45.9892 88.7956 45.9892 88.7641 45.9892 88.7326C45.9892 88.7011 45.9892 88.6696 45.9892 88.6381C45.9892 88.6066 45.9892 88.575 45.9892 88.5435C45.9892 88.512 45.9892 88.4804 45.9892 88.4489C45.9892 88.4173 45.9892 88.3858 45.9892 88.3542C45.9892 88.3226 45.9892 88.291 45.9892 88.2594C45.9892 88.2278 45.9892 88.1962 45.9892 88.1646C45.9892 88.133 45.9892 88.1014 45.9892 88.0698C45.9892 88.0382 45.9892 88.0065 45.9892 87.9749C45.9892 87.9432 45.9892 87.9116 45.9892 87.8799C45.9892 87.8483 45.9892 87.8166 45.9892 87.7849C45.9892 87.7532 45.9892 87.7215 45.9892 87.6898C45.9892 87.6582 45.9892 87.6264 45.9892 87.5947C45.9892 87.563 45.9892 87.5313 45.9892 87.4996C45.9892 87.4679 45.9892 87.4361 45.9892 87.4044C45.9892 87.3726 45.9892 87.3409 45.9892 87.3091C45.9892 87.2774 45.9892 87.2456 45.9892 87.2138C45.9892 87.182 45.9892 87.1503 45.9892 87.1185C45.9892 87.0867 45.9892 87.0549 45.9892 87.0231C45.9892 86.9913 45.9892 86.9595 45.9892 86.9276C45.9892 86.8958 45.9892 86.864 45.9892 86.8321C45.9892 86.8003 45.9892 86.7685 45.9892 86.7366C45.9892 86.7048 45.9892 86.6729 45.9892 86.641C45.9892 86.6092 45.9892 86.5773 45.9892 86.5454C45.9892 86.5136 45.9892 86.4817 45.9892 86.4498C45.9892 86.4179 45.9892 86.386 45.9892 86.3541C45.9892 86.3222 45.9892 86.2903 45.9892 86.2583C45.9892 86.2264 45.9892 86.1945 45.9892 86.1626C45.9892 86.1306 45.9892 86.0987 45.9892 86.0668C45.9892 86.0348 45.9892 86.0029 45.9892 85.9709C45.9892 85.9389 45.9892 85.907 45.9892 85.875C45.9892 85.843 45.9892 85.8111 45.9892 85.7791C45.9892 85.7471 45.9892 85.7151 45.9892 85.6831C45.9892 85.6511 45.9892 85.6191 45.9892 85.5871C45.9892 85.5551 45.9892 85.5231 45.9892 85.4911C45.9892 85.4591 45.9892 85.427 45.9892 85.395C45.9892 85.363 45.9892 85.331 45.9892 85.2989C45.9892 85.2669 45.9892 85.2348 45.9892 85.2028C45.9892 85.1707 45.9892 85.1387 45.9892 85.1066C45.9892 85.0745 45.9892 85.0425 45.9892 85.0104C45.9892 84.9783 45.9892 84.9463 45.9892 84.9142C45.9892 84.8821 45.9892 84.85 45.9892 84.8179C45.9892 84.7858 45.9892 84.7537 45.9892 84.7216C45.9892 84.6895 45.9892 84.6574 45.9892 84.6253C45.9892 84.5932 45.9892 84.5611 45.9892 84.529C45.9892 84.4968 45.9892 84.4647 45.9892 84.4326C45.9892 84.4005 45.9892 84.3683 45.9892 84.3362C45.9892 84.304 45.9892 84.2719 45.9892 84.2398C45.9892 84.2076 45.9892 84.1755 45.9892 84.1433C45.9892 84.1112 45.9892 84.079 45.9892 84.0468C45.9892 84.0147 45.9892 83.9825 45.9892 83.9503C45.9892 83.9182 45.9892 83.886 45.9892 83.8538C45.9892 83.8216 45.9892 83.7894 45.9892 83.7573C45.9892 83.7251 45.9892 83.6929 45.9892 83.6607C45.9892 83.6285 45.9892 83.5963 45.9892 83.5641C45.9892 83.5319 45.9892 83.4997 45.9892 83.4675C45.9892 83.4353 45.9892 83.4031 45.9892 83.3709C45.9892 83.3386 45.9892 83.3064 45.9892 83.2742C45.9892 83.242 45.9892 83.2098 45.9892 83.1775C45.9892 83.1453 45.9892 83.1131 45.9892 83.0808C45.9892 83.0486 45.9892 83.0164 45.9892 82.9841C45.9892 82.9519 45.9892 82.9197 45.9892 82.8874C45.9892 82.8552 45.9892 82.8229 45.9892 82.7907C45.9892 82.7584 45.9892 82.7262 45.9892 82.6939C45.9892 82.6617 45.9892 82.6294 45.9892 82.5972C45.9892 82.5649 45.9892 82.5326 45.9892 82.5004C45.9892 82.4681 45.9892 82.4359 45.9892 82.4036C45.9892 82.3713 45.9892 82.3391 45.9892 82.3068C45.9892 82.2745 45.9892 82.2422 45.9892 82.21C45.9892 82.1777 45.9892 82.1454 45.9892 82.1131C45.9892 82.0809 45.9892 82.0486 45.9892 82.0163C45.9892 81.984 45.9892 81.9517 45.9892 81.9194C45.9892 81.8872 45.9892 81.8549 45.9892 81.8226C45.9892 81.7903 45.9892 81.758 45.9892 81.7257C45.9892 81.6934 45.9892 81.6611 45.9892 81.6288C45.9892 81.5965 45.9892 81.5643 45.9892 81.532C45.9892 81.4997 45.9892 81.4674 45.9892 81.4351C45.9892 81.4028 45.9892 81.3705 45.9892 81.3382C45.9892 81.3059 45.9892 81.2736 45.9892 81.2413C45.9892 81.209 45.9892 81.1767 45.9892 81.1444C45.9892 81.1121 45.9892 81.0798 45.9892 81.0475C45.9892 81.0152 45.9892 80.9829 45.9892 80.9506C45.9892 80.9182 45.9892 80.8859 45.9892 80.8536C45.9892 80.8213 45.9892 80.789 45.9892 80.7567C45.9892 80.7244 45.9892 80.6921 45.9892 80.6598C45.9892 80.6275 45.9892 80.5952 45.9892 80.5629C45.9892 80.5306 45.9892 80.4983 45.9892 80.466C45.9892 80.4337 45.9892 80.4014 45.9892 80.3691C45.9892 80.3368 45.9892 80.3045 45.9892 80.2721C45.9892 80.2398 45.9892 80.2075 45.9892 80.1752C45.9892 80.1429 45.9892 80.1106 45.9892 80.0783C45.9892 80.046 45.9892 80.0137 45.9892 79.9814C45.9892 79.9491 45.9892 79.9168 45.9892 79.8845C45.9892 79.8522 45.9892 79.8199 45.9892 79.7876C45.9892 79.7553 45.9892 79.723 45.9892 79.6907C45.9892 79.6584 45.9892 79.6262 45.9892 79.5939C45.9892 79.5616 45.9892 79.5293 45.9892 79.497C45.9892 79.4647 45.9892 79.4324 45.9892 79.4001C45.9892 79.3678 45.9892 79.3355 45.9892 79.3033C45.9892 79.271 45.9892 79.2387 45.9892 79.2064C45.9892 79.1741 45.9892 79.1418 45.9892 79.1096C45.9892 79.0773 45.9892 79.045 45.9892 79.0127C45.9892 78.9805 45.9892 78.9482 45.9892 78.9159C45.9892 78.8837 45.9892 78.8514 45.9892 78.8191C45.9892 78.7868 45.9892 78.7546 45.9892 78.7223C45.9892 78.6901 45.9892 78.6578 45.9892 78.6255C45.9892 78.5933 45.9892 78.561 45.9892 78.5288C45.9892 78.4965 45.9892 78.4643 45.9892 78.432C45.9892 78.3998 45.9892 78.3675 45.9892 78.3353C45.9892 78.303 45.9892 78.2708 45.9892 78.2386C45.9892 78.2063 45.9892 78.1741 45.9892 78.1419C45.9892 78.1096 45.9892 78.0774 45.9892 78.0452C45.9892 78.0129 45.9892 77.9807 45.9892 77.9485C45.9892 77.9163 45.9892 77.8841 45.9892 77.8519C45.9892 77.8196 45.9892 77.7874 45.9892 77.7552C45.9892 77.723 45.9892 77.6908 45.9892 77.6586C45.9892 77.6264 45.9892 77.5942 45.9892 77.562C45.9892 77.5298 45.9892 77.4976 45.9892 77.4655C45.9892 77.4333 45.9892 77.4011 45.9892 77.3689C45.9892 77.3367 45.9892 77.3046 45.9892 77.2724C45.9892 77.2402 45.9892 77.208 45.9892 77.1759C45.9892 77.1437 45.9892 77.1116 45.9892 77.0794C45.9892 77.0473 45.9892 77.0151 45.9892 76.983C45.9892 76.9508 45.9892 76.9187 45.9892 76.8865C45.9892 76.8544 45.9892 76.8223 45.9892 76.7901C45.9892 76.758 45.9892 76.7259 45.9892 76.6938C45.9892 76.6616 45.9892 76.6295 45.9892 76.5974C45.9892 76.5653 45.9892 76.5332 45.9892 76.5011C45.9892 76.469 45.9892 76.4369 45.9892 76.4048C45.9892 76.3727 45.9892 76.3406 45.9892 76.3085C45.9892 76.2765 45.9892 76.2444 45.9892 76.2123C45.9892 76.1802 45.9892 76.1482 45.9892 76.1161C45.9892 76.0841 45.9892 76.052 45.9892 76.02C45.9892 75.9879 45.9892 75.9559 45.9892 75.9238C45.9892 75.8918 45.9892 75.8597 45.9892 75.8277C45.9892 75.7957 45.9892 75.7637 45.9892 75.7317C45.9892 75.6996 45.9892 75.6676 45.9892 75.6356C45.9892 75.6036 45.9892 75.5716 45.9892 75.5396C45.9892 75.5076 45.9892 75.4756 45.9892 75.4437C45.9892 75.4117 45.9892 75.3797 45.9892 75.3477C45.9892 75.3158 45.9892 75.2838 45.9892 75.2518C45.9892 75.2199 45.9892 75.1879 45.9892 75.156C45.9892 75.124 45.9892 75.0921 45.9892 75.0602C45.9892 75.0282 45.9892 74.9963 45.9892 74.9644C45.9892 74.9325 45.9892 74.9006 45.9892 74.8687C45.9892 74.8368 45.9892 74.8049 45.9892 74.773C45.9892 74.7411 45.9892 74.7092 45.9892 74.6773C45.9892 74.6454 45.9892 74.6136 45.9892 74.5817C45.9892 74.5498 45.9892 74.518 45.9892 74.4861C45.9892 74.4543 45.9892 74.4224 45.9892 74.3906C45.9892 74.3588 45.9892 74.3269 45.9892 74.2951C45.9892 74.2633 45.9892 74.2315 45.9892 74.1997C45.9892 74.1679 45.9892 74.1361 45.9892 74.1043C45.9892 74.0725 45.9892 74.0407 45.9892 74.0089C45.9892 73.9772 45.9892 73.9454 45.9892 73.9136C45.9892 73.8819 45.9892 73.8501 45.9892 73.8184C45.9892 73.7867 45.9892 73.7549 45.9892 73.7232C45.9892 73.6915 45.9892 73.6597 45.9892 73.628C45.9892 73.5963 45.9892 73.5646 45.9892 73.5329C45.9892 73.5012 45.9892 73.4695 45.9892 73.4379C45.9892 73.4062 45.9892 73.3745 45.9892 73.3429C45.9892 73.3112 45.9892 73.2795 45.9892 73.2479C45.9892 73.2163 45.9892 73.1846 45.9892 73.153C45.9892 73.1214 45.9892 73.0898 45.9892 73.0581C45.9892 73.0265 45.9892 72.9949 45.9892 72.9633C45.9892 72.9318 45.9892 72.9002 45.9892 72.8686C45.9892 72.837 45.9892 72.8055 45.9892 72.7739C45.9892 72.7424 45.9892 72.7108 45.9892 72.6793C45.9892 72.6477 45.9892 72.6162 45.9892 72.5847C45.9892 72.5532 45.9892 72.5217 45.9892 72.4902C45.9892 72.4587 45.9892 72.4272 45.9892 72.3957C45.9892 72.3642 45.9892 72.3328 45.9892 72.3013C45.9892 72.2698 45.9892 72.2384 45.9892 72.207C45.9892 72.1755 45.9892 72.1441 45.9892 72.1127C45.9892 72.0813 45.9892 72.0498 45.9892 72.0184C45.9892 71.987 45.9892 71.9557 45.9892 71.9243C45.9892 71.8929 45.9892 71.8615 45.9892 71.8302C45.9892 71.7988 45.9892 71.7675 45.9892 71.7361C45.9892 71.7048 45.9892 71.6735 45.9892 71.6421C45.9892 71.6108 45.9892 71.5795 45.9892 71.5482C45.9892 71.5169 45.9892 71.4856 45.9892 71.4544C45.9892 71.4231 45.9892 71.3918 45.9892 71.3606C45.9892 71.3293 45.9892 71.2981 45.9892 71.2669C45.9892 71.2356 45.9892 71.2044 45.9892 71.1732C45.9892 71.142 45.9892 71.1108 45.9892 71.0796C45.9892 71.0484 45.9892 71.0172 45.9892 70.9861C45.9892 70.9549 45.9892 70.9238 45.9892 70.8926C45.9892 70.8615 45.9892 70.8304 45.9892 70.7992C45.9892 70.7681 45.9892 70.737 45.9892 70.7059C45.9892 70.6748 45.9892 70.6438 45.9892 70.6127C45.9892 70.5816 45.9892 70.5506 45.9892 70.5195C45.9892 70.4885 45.9892 70.4574 45.9892 70.4264C45.9892 70.3954 45.9892 70.3644 45.9892 70.3334C45.9892 70.3024 45.9892 70.2714 45.9892 70.2404C45.9892 70.2094 45.9892 70.1785 45.9892 70.1475C45.9892 70.1166 45.9892 70.0856 45.9892 70.0547C45.9892 70.0238 45.9892 69.9929 45.9892 69.962C45.9892 69.9311 45.9892 69.9002 45.9892 69.8693C45.9892 69.8384 45.9892 69.8076 45.9892 69.7767C45.9892 69.7459 45.9892 69.7151 45.9892 69.6842C45.9892 69.6534 45.9892 69.6226 45.9892 69.5918C45.9892 69.561 45.9892 69.5302 45.9892 69.4994C45.9892 69.4687 45.9892 69.4379 45.9892 69.4072C45.9892 69.3764 45.9892 69.3457 45.9892 69.315C45.9892 69.2843 45.9892 69.2536 45.9892 69.2229C45.9892 69.1922 45.9892 69.1615 45.9892 69.1308C45.9892 69.1002 45.9892 69.0695 45.9892 69.0389C45.9892 69.0083 45.9892 68.9776 45.9892 68.947C45.9892 68.9164 45.9892 68.8858 45.9892 68.8552C45.9892 68.8247 45.9892 68.7941 45.9892 68.7635C45.9892 68.733 45.9892 68.7025 45.9892 68.6719C45.9892 68.6414 45.9892 68.6109 45.9892 68.5804C45.9892 68.5499 45.9892 68.5194 45.9892 68.489C45.9892 68.4585 45.9892 68.428 45.9892 68.3976C45.9892 68.3672 45.9892 68.3367 45.9892 68.3063C45.9892 68.2759 45.9892 68.2455 45.9892 68.2151C45.9892 68.1848 45.9892 68.1544 45.9892 68.124C45.9892 68.0937 45.9892 68.0634 45.9892 68.033C45.9892 68.0027 45.9892 67.9724 45.9892 67.9421C45.9892 67.9118 45.9892 67.8816 45.9892 67.8513C45.9892 67.821 45.9892 67.7908 45.9892 67.7606C45.9892 67.7303 45.9892 67.7001 45.9892 67.6699C45.9892 67.6397 45.9892 67.6095 45.9892 67.5794C45.9892 67.5492 45.9892 67.5191 45.9892 67.4889C45.9892 67.4588 45.9892 67.4287 45.9892 67.3986C45.9892 67.3685 45.9892 67.3384 45.9892 67.3083C45.9892 67.2782 45.9892 67.2482 45.9892 67.2181C45.9892 67.1881 45.9892 67.1581 45.9892 67.1281C45.9892 67.098 45.9892 67.068 45.9892 67.0381C45.9892 67.0081 45.9892 66.9781 45.9892 66.9482C45.9892 66.9182 45.9892 66.8883 45.9892 66.8584C45.9892 66.8285 45.9892 66.7986 45.9892 66.7687C45.9892 66.7388 45.9892 66.709 45.9892 66.6791C45.9892 66.6493 45.9892 66.6195 45.9892 66.5897C45.9892 66.5598 45.9892 66.53 45.9892 66.5003C45.9892 66.4705 45.9892 66.4407 45.9892 66.411C45.9892 66.3812 45.9892 66.3515 45.9892 66.3218C45.9892 66.2921 45.9892 66.2624 45.9892 66.2327C45.9892 66.2031 45.9892 66.1734 45.9892 66.1438C45.9892 66.1141 45.9892 66.0845 45.9892 66.0549C45.9892 66.0253 45.9892 65.9957 45.9892 65.9661C45.9892 65.9365 45.9892 65.907 45.9892 65.8775C45.9892 65.8479 45.9892 65.8184 45.9892 65.7889C45.9892 65.7594 45.9892 65.7299 45.9892 65.7005C45.9892 65.671 45.9892 65.6415 45.9892 65.6121C45.9892 65.5827 45.9892 65.5533 45.9892 65.5239C45.9892 65.4945 45.9892 65.4651 45.9892 65.4358C45.9892 65.4064 45.9892 65.3771 45.9892 65.3477C45.9892 65.3184 45.9892 65.2891 45.9892 65.2598C45.9892 65.2306 45.9892 65.2013 45.9892 65.1721C45.9892 65.1428 45.9892 65.1136 45.9892 65.0844C45.9892 65.0552 45.9892 65.026 45.9892 64.9968C45.9892 64.9676 45.9892 64.9385 45.9892 64.9093C45.9892 64.8802 45.9892 64.8511 45.9892 64.822C45.9892 64.7929 45.9892 64.7638 45.9892 64.7348C45.9892 64.7057 45.9892 64.6767 45.9892 64.6477C45.9892 64.6187 45.9892 64.5897 45.9892 64.5607C45.9892 64.5317 45.9892 64.5027 45.9892 64.4738C45.9892 64.4449 45.9892 64.4159 45.9892 64.387C45.9892 64.3581 45.9892 64.3292 45.9892 64.3004C45.9892 64.2715 45.9892 64.2427 45.9892 64.2139C45.9892 64.185 45.9892 64.1562 45.9892 64.1274C45.9892 64.0987 45.9892 64.0699 45.9892 64.0412C45.9892 64.0124 45.9892 63.9837 45.9892 63.955C45.9892 63.9263 45.9892 63.8976 45.9892 63.8689C45.9892 63.8403 45.9892 63.8116 45.9892 63.783C45.9892 63.7544 45.9892 63.7258 45.9892 63.6972C45.9892 63.6686 45.9892 63.6401 45.9892 63.6115C45.9892 63.583 45.9892 63.5545 45.9892 63.526C45.9892 63.4975 45.9892 63.469 45.9892 63.4406C45.9892 63.4121 45.9892 63.3837 45.9892 63.3552C45.9892 63.3268 45.9892 63.2984 45.9892 63.2701C45.9892 63.2417 45.9892 63.2133 45.9892 63.185C45.9892 63.1567 45.9892 63.1284 45.9892 63.1001C45.9892 63.0718 45.9892 63.0435 45.9892 63.0153C45.9892 62.987 45.9892 62.9588 45.9892 62.9306C45.9892 62.9024 45.9892 62.8742 45.9892 62.8461C45.9892 62.8179 45.9892 62.7898 45.9892 62.7617C45.9892 62.7336 45.9892 62.7055 45.9892 62.6774C45.9892 62.6493 45.9892 62.6213 45.9892 62.5932C45.9892 62.5652 45.9892 62.5372 45.9892 62.5092C45.9892 62.4812 45.9892 62.4533 45.9892 62.4253C45.9892 62.3974 45.9892 62.3695 45.9892 62.3416C45.9892 62.3137 45.9892 62.2858 45.9892 62.258C45.9892 62.2301 45.9892 62.2023 45.9892 62.1745C45.9892 62.1467 45.9892 62.1189 45.9892 62.0911C45.9892 62.0634 45.9892 62.0356 45.9892 62.0079C45.9892 61.9802 45.9892 61.9525 45.9892 61.9249C45.9892 61.8972 45.9892 61.8695 45.9892 61.8419C45.9892 61.8143 45.9892 61.7867 45.9892 61.7591C45.9892 61.7315 45.9892 61.704 45.9892 61.6765C45.9892 61.6489 45.9892 61.6214 45.9892 61.5939C45.9892 61.5665 45.9892 61.539 45.9892 61.5116C45.9892 61.4841 45.9892 61.4567 45.9892 61.4293C45.9892 61.4019 45.9892 61.3746 45.9892 61.3472C45.9892 61.3199 45.9892 61.2926 45.9892 61.2653C45.9892 61.238 45.9892 61.2107 45.9892 61.1835C45.9892 61.1562 45.9892 61.129 45.9892 61.1018C45.9892 61.0746 45.9892 61.0474 45.9892 61.0203C45.9892 60.9931 45.9892 60.966 45.9892 60.9389C45.9892 60.9118 45.9892 60.8847 45.9892 60.8576C45.9892 60.8306 45.9892 60.8036 45.9892 60.7766C45.9892 60.7495 45.9892 60.7226 45.9892 60.6956C45.9892 60.6687 45.9892 60.6417 45.9892 60.6148C45.9892 60.5879 45.9892 60.561 45.9892 60.5342C45.9892 60.5073 45.9892 60.4805 45.9892 60.4537C45.9892 60.4269 45.9892 60.4001 45.9892 60.3733C45.9892 60.3466 45.9892 60.3198 45.9892 60.2931C45.9892 60.2664 45.9892 60.2397 45.9892 60.2131C45.9892 60.1864 45.9892 60.1598 45.9892 60.1332C45.9892 60.1066 45.9892 60.08 45.9892 60.0534C45.9892 60.0269 45.9892 60.0004 45.9892 59.9739C45.9892 59.9473 45.9892 59.9209 45.9892 59.8944C45.9892 59.868 45.9892 59.8415 45.9892 59.8151C45.9892 59.7887 45.9892 59.7624 45.9892 59.736C45.9892 59.7097 45.9892 59.6833 45.9892 59.657C45.9892 59.6307 45.9892 59.6045 45.9892 59.5782C45.9892 59.552 45.9892 59.5258 45.9892 59.4996C45.9892 59.4734 45.9892 59.4472 45.9892 59.4211C45.9892 59.3949 45.9892 59.3688 45.9892 59.3427C45.9892 59.3166 45.9892 59.2906 45.9892 59.2645C45.9892 59.2385 45.9892 59.2125 45.9892 59.1865C45.9892 59.1605 45.9892 59.1346 45.9892 59.1087C45.9892 59.0827 45.9892 59.0568 45.9892 59.031C45.9892 59.0051 45.9892 58.9792 45.9892 58.9534C45.9892 58.9276 45.9892 58.9018 45.9892 58.876C45.9892 58.8503 45.9892 58.8245 45.9892 58.7988C45.9892 58.7731 45.9892 58.7474 45.9892 58.7218C45.9892 58.6961 45.9892 58.6705 45.9892 58.6449C45.9892 58.6193 45.9892 58.5937 45.9892 58.5682C45.9892 58.5426 45.9892 58.5171 45.9892 58.4916C45.9892 58.4661 45.9892 58.4407 45.9892 58.4152C45.9892 58.3898 45.9892 58.3644 45.9892 58.339C45.9892 58.3136 45.9892 58.2883 45.9892 58.2629C45.9892 58.2376 45.9892 58.2123 45.9892 58.1871C45.9892 58.1618 45.9892 58.1366 45.9892 58.1114C45.9892 58.0861 45.9892 58.061 45.9892 58.0358C45.9892 58.0107 45.9892 57.9855 45.9892 57.9604C45.9892 57.9353 45.9892 57.9103 45.9892 57.8852C45.9892 57.8602 45.9892 57.8352 45.9892 57.8102C45.9892 57.7852 45.9892 57.7603 45.9892 57.7353C45.9892 57.7104 45.9892 57.6855 45.9892 57.6607C45.9892 57.6358 45.9892 57.611 45.9892 57.5861C45.9892 57.5613 45.9892 57.5366 45.9892 57.5118C45.9892 57.4871 45.9892 57.4623 45.9892 57.4376C45.9892 57.413 45.9892 57.3883 45.9892 57.3637C45.9892 57.339 45.9892 57.3144 45.9892 57.2899C45.9892 57.2653 45.9892 57.2407 45.9892 57.2162C45.9892 57.1917 45.9892 57.1672 45.9892 57.1428C45.9892 57.1183 45.9892 57.0939 45.9892 57.0695C45.9892 57.0451 45.9892 57.0207 45.9892 56.9964C45.9892 56.9721 45.9892 56.9478 45.9892 56.9235C45.9892 56.8992 45.9892 56.875 45.9892 56.8508C45.9892 56.8265 45.9892 56.8024 45.9892 56.7782C45.9892 56.754 45.9892 56.7299 45.9892 56.7058C45.9892 56.6817 45.9892 56.6577 45.9892 56.6336C45.9892 56.6096 45.9892 56.5856 45.9892 56.5616C45.9892 56.5377 45.9892 56.5137 45.9892 56.4898C45.9892 56.4659 45.9892 56.442 45.9892 56.4182C45.9892 56.3943 45.9892 56.3705 45.9892 56.3467C45.9892 56.3229 45.9892 56.2992 45.9892 56.2755C45.9892 56.2517 45.9892 56.2281 45.9892 56.2044C45.9892 56.1807 45.9892 56.1571 45.9892 56.1335C45.9892 56.1099 45.9892 56.0863 45.9892 56.0628C45.9892 56.0393 45.9892 56.0158 45.9892 55.9923C45.9892 55.9688 45.9892 55.9454 45.9892 55.922C45.9892 55.8986 45.9892 55.8752 45.9892 55.8518C45.9892 55.8285 45.9892 55.8052 45.9892 55.7819C45.9892 55.7586 45.9892 55.7354 45.9892 55.7122C45.9892 55.6889 45.9892 55.6657 45.9892 55.6426C45.9892 55.6194 45.9892 55.5963 45.9892 55.5732C45.9892 55.5501 45.9892 55.5271 45.9892 55.5041C45.9892 55.481 45.9892 55.458 45.9892 55.4351C45.9892 55.4121 45.9892 55.3892 45.9892 55.3663C45.9892 55.3434 45.9892 55.3206 45.9892 55.2977C45.9892 55.2749 45.9892 55.2521 45.9892 55.2293C45.9892 55.2066 45.9892 55.1838 45.9892 55.1611C45.9892 55.1384 45.9892 55.1158 45.9892 55.0931C45.9892 55.0705 45.9892 55.0479 45.9892 55.0254C45.9892 55.0028 45.9892 54.9803 45.9892 54.9578C45.9892 54.9353 45.9892 54.9128 45.9892 54.8904C45.9892 54.8679 45.9892 54.8455 45.9892 54.8232C45.9892 54.8008 45.9892 54.7785 45.9892 54.7562C45.9892 54.7339 45.9892 54.7116 45.9892 54.6894C45.9892 54.6671 45.9892 54.645 45.9892 54.6228C45.9892 54.6006 45.9892 54.5785 45.9892 54.5564C45.9892 54.5343 45.9892 54.5122 45.9892 54.4902C45.9892 54.4682 45.9892 54.4462 45.9892 54.4242C45.9892 54.4023 45.9892 54.3804 45.9892 54.3585C45.9892 54.3366 45.9892 54.3147 45.9892 54.2929C45.9892 54.2711 45.9892 54.2493 45.9892 54.2275C45.9892 54.2058 45.9892 54.1841 45.9892 54.1624C45.9892 54.1407 45.9892 54.1191 45.9892 54.0974C45.9892 54.0758 45.9892 54.0542 45.9892 54.0327C45.9892 54.0112 45.9892 53.9896 45.9892 53.9682C45.9892 53.9467 45.9892 53.9253 45.9892 53.9039C45.9892 53.8824 45.9892 53.8611 45.9892 53.8397C45.9892 53.8184 45.9892 53.7971 45.9892 53.7759C45.9892 53.7546 45.9892 53.7334 45.9892 53.7122C45.9892 53.691 45.9892 53.6698 45.9892 53.6487C45.9892 53.6276 45.9892 53.6065 45.9892 53.5854C45.9892 53.5644 45.9892 53.5434 45.9892 53.5224C45.9892 53.5014 45.9892 53.4805 45.9892 53.4596C45.9892 53.4387 45.9892 53.4178 45.9892 53.3969C45.9892 53.3761 45.9892 53.3553 45.9892 53.3346C45.9892 53.3138 45.9892 53.2931 45.9892 53.2724C45.9892 53.2517 45.9892 53.231 45.9892 53.2104C45.9892 53.1898 45.9892 53.1692 45.9892 53.1487C45.9892 53.1281 45.9892 53.1076 45.9892 53.0871C45.9892 53.0667 45.9892 53.0462 45.9892 53.0258C45.9892 53.0054 45.9892 52.9851 45.9892 52.9647C45.9892 52.9444 45.9892 52.9241 45.9892 52.9039C45.9892 52.8836 45.9892 52.8634 45.9892 52.8432C45.9892 52.823 45.9892 52.8029 45.9892 52.7828C45.9892 52.7627 45.9892 52.7426 45.9892 52.7226C45.9892 52.7026 45.9892 52.6826 45.9892 52.6626C45.9892 52.6427 45.9892 52.6228 45.9892 52.6029C45.9892 52.583 45.9892 52.5632 45.9892 52.5433C45.9892 52.5235 45.9892 52.5038 45.9892 52.484C45.9892 52.4643 45.9892 52.4446 45.9892 52.425C45.9892 52.4053 45.9892 52.3857 45.9892 52.3661C45.9892 52.3465 45.9892 52.327 45.9892 52.3075C45.9892 52.288 45.9892 52.2685 45.9892 52.2491C45.9892 52.2297 45.9892 52.2103 45.9892 52.1909C45.9892 52.1716 45.9892 52.1523 45.9892 52.133C45.9892 52.1137 45.9892 52.0945 45.9892 52.0753C45.9892 52.0561 45.9892 52.037 45.9892 52.0178C45.9892 51.9987 45.9892 51.9796 45.9892 51.9606C45.9892 51.9416 45.9892 51.9225 45.9892 51.9036C45.9892 51.8846 45.9892 51.8657 45.9892 51.8468C45.9892 51.8279 45.9892 51.8091 45.9892 51.7903C45.9892 51.7715 45.9892 51.7527 45.9892 51.734C45.9892 51.7152 45.9892 51.6965 45.9892 51.6779C45.9892 51.6592 45.9892 51.6406 45.9892 51.622C45.9892 51.6035 45.9892 51.5849 45.9892 51.5664C45.9892 51.548 45.9892 51.5295 45.9892 51.5111C45.9892 51.4927 45.9892 51.4743 45.9892 51.456C45.9892 51.4376 45.9892 51.4193 45.9892 51.4011C45.9892 51.3828 45.9892 51.3646 45.9892 51.3464C45.9892 51.3282 45.9892 51.3101 45.9892 51.292C45.9892 51.2739 45.9892 51.2559 45.9892 51.2378C45.9892 51.2198 45.9892 51.2019 45.9892 51.1839C45.9892 51.166 45.9892 51.1481 45.9892 51.1302C45.9892 51.1124 45.9892 51.0946 45.9892 51.0768C45.9892 51.059 45.9892 51.0413 45.9892 51.0236C45.9892 51.0059 45.9892 50.9883 45.9892 50.9706C45.9892 50.953 45.9892 50.9355 45.9892 50.9179C45.9892 50.9004 45.9892 50.8829 45.9892 50.8655C45.9892 50.848 45.9892 50.8306 45.9892 50.8132C45.9892 50.7959 45.9892 50.7786 45.9892 50.7613C45.9892 50.744 45.9892 50.7267 45.9892 50.7095C45.9892 50.6923 45.9892 50.6752 45.9892 50.6581C45.9892 50.6409 45.9892 50.6239 45.9892 50.6068C45.9892 50.5898 45.9892 50.5728 45.9892 50.5559C45.9892 50.5389 45.9892 50.522 45.9892 50.5051C45.9892 50.4883 45.9892 50.4714 45.9892 50.4546C45.9892 50.4379 45.9892 50.4211 45.9892 50.4044C45.9892 50.3877 45.9892 50.3711 45.9892 50.3544C45.9892 50.3378 45.9892 50.3213 45.9892 50.3047C45.9892 50.2882 45.9892 50.2717 45.9892 50.2553C45.9892 50.2388 45.9892 50.2224 45.9892 50.206C45.9892 50.1897 45.9892 50.1734 45.9892 50.1571C45.9892 50.1408 45.9892 50.1246 45.9892 50.1084C45.9892 50.0922 45.9892 50.076 45.9892 50.0599C45.9892 50.0438 45.9892 50.0277 45.9892 50.0117C45.9892 49.9957 45.9892 49.9797 45.9892 49.9638C45.9892 49.9479 45.9892 49.932 45.9892 49.9161C45.9892 49.9003 45.9892 49.8845 45.9892 49.8687C45.9892 49.8529 45.9892 49.8372 45.9892 49.8215C45.9892 49.8059 45.9892 49.7902 45.9892 49.7746C45.9892 49.7591 45.9892 49.7435 45.9892 49.728C45.9892 49.7125 45.9892 49.697 45.9892 49.6816C45.9892 49.6662 45.9892 49.6508 45.9892 49.6355C45.9892 49.6202 45.9892 49.6049 45.9892 49.5897C45.9892 49.5744 45.9892 49.5592 45.9892 49.5441C45.9892 49.5289 45.9892 49.5138 45.9892 49.4987C45.9892 49.4837 45.9892 49.4687 45.9892 49.4537C45.9892 49.4387 45.9892 49.4238 45.9892 49.4089C45.9892 49.394 45.9892 49.3792 45.9892 49.3644C45.9892 49.3496 45.9892 49.3348 45.9892 49.3201C45.9892 49.3054 45.9892 49.2907 45.9892 49.2761C45.9892 49.2615 45.9892 49.2469 45.9892 49.2324C45.9892 49.2179 45.9892 49.2034 45.9892 49.1889C45.9892 49.1745 45.9892 49.1601 45.9892 49.1458C45.9892 49.1314 45.9892 49.1171 45.9892 49.1028C45.9892 49.0886 45.9892 49.0744 45.9892 49.0602C45.9892 49.046 45.9892 49.0319 45.9892 49.0178H44.4892C44.4892 49.0319 44.4892 49.046 44.4892 49.0602C44.4892 49.0744 44.4892 49.0886 44.4892 49.1028C44.4892 49.1171 44.4892 49.1314 44.4892 49.1458C44.4892 49.1601 44.4892 49.1745 44.4892 49.1889C44.4892 49.2034 44.4892 49.2179 44.4892 49.2324C44.4892 49.2469 44.4892 49.2615 44.4892 49.2761C44.4892 49.2907 44.4892 49.3054 44.4892 49.3201C44.4892 49.3348 44.4892 49.3496 44.4892 49.3644C44.4892 49.3792 44.4892 49.394 44.4892 49.4089C44.4892 49.4238 44.4892 49.4387 44.4892 49.4537C44.4892 49.4687 44.4892 49.4837 44.4892 49.4987C44.4892 49.5138 44.4892 49.5289 44.4892 49.5441C44.4892 49.5592 44.4892 49.5744 44.4892 49.5897C44.4892 49.6049 44.4892 49.6202 44.4892 49.6355C44.4892 49.6508 44.4892 49.6662 44.4892 49.6816C44.4892 49.697 44.4892 49.7125 44.4892 49.728C44.4892 49.7435 44.4892 49.7591 44.4892 49.7746C44.4892 49.7902 44.4892 49.8059 44.4892 49.8215C44.4892 49.8372 44.4892 49.8529 44.4892 49.8687C44.4892 49.8845 44.4892 49.9003 44.4892 49.9161C44.4892 49.932 44.4892 49.9479 44.4892 49.9638C44.4892 49.9797 44.4892 49.9957 44.4892 50.0117C44.4892 50.0277 44.4892 50.0438 44.4892 50.0599C44.4892 50.076 44.4892 50.0922 44.4892 50.1084C44.4892 50.1246 44.4892 50.1408 44.4892 50.1571C44.4892 50.1734 44.4892 50.1897 44.4892 50.206C44.4892 50.2224 44.4892 50.2388 44.4892 50.2553C44.4892 50.2717 44.4892 50.2882 44.4892 50.3047C44.4892 50.3213 44.4892 50.3378 44.4892 50.3544C44.4892 50.3711 44.4892 50.3877 44.4892 50.4044C44.4892 50.4211 44.4892 50.4379 44.4892 50.4546C44.4892 50.4714 44.4892 50.4883 44.4892 50.5051C44.4892 50.522 44.4892 50.5389 44.4892 50.5559C44.4892 50.5728 44.4892 50.5898 44.4892 50.6068C44.4892 50.6239 44.4892 50.6409 44.4892 50.6581C44.4892 50.6752 44.4892 50.6923 44.4892 50.7095C44.4892 50.7267 44.4892 50.744 44.4892 50.7613C44.4892 50.7786 44.4892 50.7959 44.4892 50.8132C44.4892 50.8306 44.4892 50.848 44.4892 50.8655C44.4892 50.8829 44.4892 50.9004 44.4892 50.9179C44.4892 50.9355 44.4892 50.953 44.4892 50.9706C44.4892 50.9883 44.4892 51.0059 44.4892 51.0236C44.4892 51.0413 44.4892 51.059 44.4892 51.0768C44.4892 51.0946 44.4892 51.1124 44.4892 51.1302C44.4892 51.1481 44.4892 51.166 44.4892 51.1839C44.4892 51.2019 44.4892 51.2198 44.4892 51.2378C44.4892 51.2559 44.4892 51.2739 44.4892 51.292C44.4892 51.3101 44.4892 51.3282 44.4892 51.3464C44.4892 51.3646 44.4892 51.3828 44.4892 51.4011C44.4892 51.4193 44.4892 51.4376 44.4892 51.456C44.4892 51.4743 44.4892 51.4927 44.4892 51.5111C44.4892 51.5295 44.4892 51.548 44.4892 51.5664C44.4892 51.5849 44.4892 51.6035 44.4892 51.622C44.4892 51.6406 44.4892 51.6592 44.4892 51.6779C44.4892 51.6965 44.4892 51.7152 44.4892 51.734C44.4892 51.7527 44.4892 51.7715 44.4892 51.7903C44.4892 51.8091 44.4892 51.8279 44.4892 51.8468C44.4892 51.8657 44.4892 51.8846 44.4892 51.9036C44.4892 51.9225 44.4892 51.9416 44.4892 51.9606C44.4892 51.9796 44.4892 51.9987 44.4892 52.0178C44.4892 52.037 44.4892 52.0561 44.4892 52.0753C44.4892 52.0945 44.4892 52.1137 44.4892 52.133C44.4892 52.1523 44.4892 52.1716 44.4892 52.1909C44.4892 52.2103 44.4892 52.2297 44.4892 52.2491C44.4892 52.2685 44.4892 52.288 44.4892 52.3075C44.4892 52.327 44.4892 52.3465 44.4892 52.3661C44.4892 52.3857 44.4892 52.4053 44.4892 52.425C44.4892 52.4446 44.4892 52.4643 44.4892 52.484C44.4892 52.5038 44.4892 52.5235 44.4892 52.5433C44.4892 52.5632 44.4892 52.583 44.4892 52.6029C44.4892 52.6228 44.4892 52.6427 44.4892 52.6626C44.4892 52.6826 44.4892 52.7026 44.4892 52.7226C44.4892 52.7426 44.4892 52.7627 44.4892 52.7828C44.4892 52.8029 44.4892 52.823 44.4892 52.8432C44.4892 52.8634 44.4892 52.8836 44.4892 52.9039C44.4892 52.9241 44.4892 52.9444 44.4892 52.9647C44.4892 52.9851 44.4892 53.0054 44.4892 53.0258C44.4892 53.0462 44.4892 53.0667 44.4892 53.0871C44.4892 53.1076 44.4892 53.1281 44.4892 53.1487C44.4892 53.1692 44.4892 53.1898 44.4892 53.2104C44.4892 53.231 44.4892 53.2517 44.4892 53.2724C44.4892 53.2931 44.4892 53.3138 44.4892 53.3346C44.4892 53.3553 44.4892 53.3761 44.4892 53.3969C44.4892 53.4178 44.4892 53.4387 44.4892 53.4596C44.4892 53.4805 44.4892 53.5014 44.4892 53.5224C44.4892 53.5434 44.4892 53.5644 44.4892 53.5854C44.4892 53.6065 44.4892 53.6276 44.4892 53.6487C44.4892 53.6698 44.4892 53.691 44.4892 53.7122C44.4892 53.7334 44.4892 53.7546 44.4892 53.7759C44.4892 53.7971 44.4892 53.8184 44.4892 53.8397C44.4892 53.8611 44.4892 53.8824 44.4892 53.9039C44.4892 53.9253 44.4892 53.9467 44.4892 53.9682C44.4892 53.9896 44.4892 54.0112 44.4892 54.0327C44.4892 54.0542 44.4892 54.0758 44.4892 54.0974C44.4892 54.1191 44.4892 54.1407 44.4892 54.1624C44.4892 54.1841 44.4892 54.2058 44.4892 54.2275C44.4892 54.2493 44.4892 54.2711 44.4892 54.2929C44.4892 54.3147 44.4892 54.3366 44.4892 54.3585C44.4892 54.3804 44.4892 54.4023 44.4892 54.4242C44.4892 54.4462 44.4892 54.4682 44.4892 54.4902C44.4892 54.5122 44.4892 54.5343 44.4892 54.5564C44.4892 54.5785 44.4892 54.6006 44.4892 54.6228C44.4892 54.645 44.4892 54.6671 44.4892 54.6894C44.4892 54.7116 44.4892 54.7339 44.4892 54.7562C44.4892 54.7785 44.4892 54.8008 44.4892 54.8232C44.4892 54.8455 44.4892 54.8679 44.4892 54.8904C44.4892 54.9128 44.4892 54.9353 44.4892 54.9578C44.4892 54.9803 44.4892 55.0028 44.4892 55.0254C44.4892 55.0479 44.4892 55.0705 44.4892 55.0931C44.4892 55.1158 44.4892 55.1384 44.4892 55.1611C44.4892 55.1838 44.4892 55.2066 44.4892 55.2293C44.4892 55.2521 44.4892 55.2749 44.4892 55.2977C44.4892 55.3206 44.4892 55.3434 44.4892 55.3663C44.4892 55.3892 44.4892 55.4121 44.4892 55.4351C44.4892 55.458 44.4892 55.481 44.4892 55.5041C44.4892 55.5271 44.4892 55.5501 44.4892 55.5732C44.4892 55.5963 44.4892 55.6194 44.4892 55.6426C44.4892 55.6657 44.4892 55.6889 44.4892 55.7122C44.4892 55.7354 44.4892 55.7586 44.4892 55.7819C44.4892 55.8052 44.4892 55.8285 44.4892 55.8518C44.4892 55.8752 44.4892 55.8986 44.4892 55.922C44.4892 55.9454 44.4892 55.9688 44.4892 55.9923C44.4892 56.0158 44.4892 56.0393 44.4892 56.0628C44.4892 56.0863 44.4892 56.1099 44.4892 56.1335C44.4892 56.1571 44.4892 56.1807 44.4892 56.2044C44.4892 56.2281 44.4892 56.2517 44.4892 56.2755C44.4892 56.2992 44.4892 56.3229 44.4892 56.3467C44.4892 56.3705 44.4892 56.3943 44.4892 56.4182C44.4892 56.442 44.4892 56.4659 44.4892 56.4898C44.4892 56.5137 44.4892 56.5377 44.4892 56.5616C44.4892 56.5856 44.4892 56.6096 44.4892 56.6336C44.4892 56.6577 44.4892 56.6817 44.4892 56.7058C44.4892 56.7299 44.4892 56.754 44.4892 56.7782C44.4892 56.8024 44.4892 56.8265 44.4892 56.8508C44.4892 56.875 44.4892 56.8992 44.4892 56.9235C44.4892 56.9478 44.4892 56.9721 44.4892 56.9964C44.4892 57.0207 44.4892 57.0451 44.4892 57.0695C44.4892 57.0939 44.4892 57.1183 44.4892 57.1428C44.4892 57.1672 44.4892 57.1917 44.4892 57.2162C44.4892 57.2407 44.4892 57.2653 44.4892 57.2899C44.4892 57.3144 44.4892 57.339 44.4892 57.3637C44.4892 57.3883 44.4892 57.413 44.4892 57.4376C44.4892 57.4623 44.4892 57.4871 44.4892 57.5118C44.4892 57.5366 44.4892 57.5613 44.4892 57.5861C44.4892 57.611 44.4892 57.6358 44.4892 57.6607C44.4892 57.6855 44.4892 57.7104 44.4892 57.7353C44.4892 57.7603 44.4892 57.7852 44.4892 57.8102C44.4892 57.8352 44.4892 57.8602 44.4892 57.8852C44.4892 57.9103 44.4892 57.9353 44.4892 57.9604C44.4892 57.9855 44.4892 58.0107 44.4892 58.0358C44.4892 58.061 44.4892 58.0861 44.4892 58.1114C44.4892 58.1366 44.4892 58.1618 44.4892 58.1871C44.4892 58.2123 44.4892 58.2376 44.4892 58.2629C44.4892 58.2883 44.4892 58.3136 44.4892 58.339C44.4892 58.3644 44.4892 58.3898 44.4892 58.4152C44.4892 58.4407 44.4892 58.4661 44.4892 58.4916C44.4892 58.5171 44.4892 58.5426 44.4892 58.5682C44.4892 58.5937 44.4892 58.6193 44.4892 58.6449C44.4892 58.6705 44.4892 58.6961 44.4892 58.7218C44.4892 58.7474 44.4892 58.7731 44.4892 58.7988C44.4892 58.8245 44.4892 58.8503 44.4892 58.876C44.4892 58.9018 44.4892 58.9276 44.4892 58.9534C44.4892 58.9792 44.4892 59.0051 44.4892 59.031C44.4892 59.0568 44.4892 59.0827 44.4892 59.1087C44.4892 59.1346 44.4892 59.1605 44.4892 59.1865C44.4892 59.2125 44.4892 59.2385 44.4892 59.2645C44.4892 59.2906 44.4892 59.3166 44.4892 59.3427C44.4892 59.3688 44.4892 59.3949 44.4892 59.4211C44.4892 59.4472 44.4892 59.4734 44.4892 59.4996C44.4892 59.5258 44.4892 59.552 44.4892 59.5782C44.4892 59.6045 44.4892 59.6307 44.4892 59.657C44.4892 59.6833 44.4892 59.7097 44.4892 59.736C44.4892 59.7624 44.4892 59.7887 44.4892 59.8151C44.4892 59.8415 44.4892 59.868 44.4892 59.8944C44.4892 59.9209 44.4892 59.9473 44.4892 59.9739C44.4892 60.0004 44.4892 60.0269 44.4892 60.0534C44.4892 60.08 44.4892 60.1066 44.4892 60.1332C44.4892 60.1598 44.4892 60.1864 44.4892 60.2131C44.4892 60.2397 44.4892 60.2664 44.4892 60.2931C44.4892 60.3198 44.4892 60.3466 44.4892 60.3733C44.4892 60.4001 44.4892 60.4269 44.4892 60.4537C44.4892 60.4805 44.4892 60.5073 44.4892 60.5342C44.4892 60.561 44.4892 60.5879 44.4892 60.6148C44.4892 60.6417 44.4892 60.6687 44.4892 60.6956C44.4892 60.7226 44.4892 60.7495 44.4892 60.7766C44.4892 60.8036 44.4892 60.8306 44.4892 60.8576C44.4892 60.8847 44.4892 60.9118 44.4892 60.9389C44.4892 60.966 44.4892 60.9931 44.4892 61.0203C44.4892 61.0474 44.4892 61.0746 44.4892 61.1018C44.4892 61.129 44.4892 61.1562 44.4892 61.1835C44.4892 61.2107 44.4892 61.238 44.4892 61.2653C44.4892 61.2926 44.4892 61.3199 44.4892 61.3472C44.4892 61.3746 44.4892 61.4019 44.4892 61.4293C44.4892 61.4567 44.4892 61.4841 44.4892 61.5116C44.4892 61.539 44.4892 61.5665 44.4892 61.5939C44.4892 61.6214 44.4892 61.6489 44.4892 61.6765C44.4892 61.704 44.4892 61.7315 44.4892 61.7591C44.4892 61.7867 44.4892 61.8143 44.4892 61.8419C44.4892 61.8695 44.4892 61.8972 44.4892 61.9249C44.4892 61.9525 44.4892 61.9802 44.4892 62.0079C44.4892 62.0356 44.4892 62.0634 44.4892 62.0911C44.4892 62.1189 44.4892 62.1467 44.4892 62.1745C44.4892 62.2023 44.4892 62.2301 44.4892 62.258C44.4892 62.2858 44.4892 62.3137 44.4892 62.3416C44.4892 62.3695 44.4892 62.3974 44.4892 62.4253C44.4892 62.4533 44.4892 62.4812 44.4892 62.5092C44.4892 62.5372 44.4892 62.5652 44.4892 62.5932C44.4892 62.6213 44.4892 62.6493 44.4892 62.6774C44.4892 62.7055 44.4892 62.7336 44.4892 62.7617C44.4892 62.7898 44.4892 62.8179 44.4892 62.8461C44.4892 62.8742 44.4892 62.9024 44.4892 62.9306C44.4892 62.9588 44.4892 62.987 44.4892 63.0153C44.4892 63.0435 44.4892 63.0718 44.4892 63.1001C44.4892 63.1284 44.4892 63.1567 44.4892 63.185C44.4892 63.2133 44.4892 63.2417 44.4892 63.2701C44.4892 63.2984 44.4892 63.3268 44.4892 63.3552C44.4892 63.3837 44.4892 63.4121 44.4892 63.4406C44.4892 63.469 44.4892 63.4975 44.4892 63.526C44.4892 63.5545 44.4892 63.583 44.4892 63.6115C44.4892 63.6401 44.4892 63.6686 44.4892 63.6972C44.4892 63.7258 44.4892 63.7544 44.4892 63.783C44.4892 63.8116 44.4892 63.8403 44.4892 63.8689C44.4892 63.8976 44.4892 63.9263 44.4892 63.955C44.4892 63.9837 44.4892 64.0124 44.4892 64.0412C44.4892 64.0699 44.4892 64.0987 44.4892 64.1274C44.4892 64.1562 44.4892 64.185 44.4892 64.2139C44.4892 64.2427 44.4892 64.2715 44.4892 64.3004C44.4892 64.3292 44.4892 64.3581 44.4892 64.387C44.4892 64.4159 44.4892 64.4449 44.4892 64.4738C44.4892 64.5027 44.4892 64.5317 44.4892 64.5607C44.4892 64.5897 44.4892 64.6187 44.4892 64.6477C44.4892 64.6767 44.4892 64.7057 44.4892 64.7348C44.4892 64.7638 44.4892 64.7929 44.4892 64.822C44.4892 64.8511 44.4892 64.8802 44.4892 64.9093C44.4892 64.9385 44.4892 64.9676 44.4892 64.9968C44.4892 65.026 44.4892 65.0552 44.4892 65.0844C44.4892 65.1136 44.4892 65.1428 44.4892 65.1721C44.4892 65.2013 44.4892 65.2306 44.4892 65.2598C44.4892 65.2891 44.4892 65.3184 44.4892 65.3477C44.4892 65.3771 44.4892 65.4064 44.4892 65.4358C44.4892 65.4651 44.4892 65.4945 44.4892 65.5239C44.4892 65.5533 44.4892 65.5827 44.4892 65.6121C44.4892 65.6415 44.4892 65.671 44.4892 65.7005C44.4892 65.7299 44.4892 65.7594 44.4892 65.7889C44.4892 65.8184 44.4892 65.8479 44.4892 65.8775C44.4892 65.907 44.4892 65.9365 44.4892 65.9661C44.4892 65.9957 44.4892 66.0253 44.4892 66.0549C44.4892 66.0845 44.4892 66.1141 44.4892 66.1438C44.4892 66.1734 44.4892 66.2031 44.4892 66.2327C44.4892 66.2624 44.4892 66.2921 44.4892 66.3218C44.4892 66.3515 44.4892 66.3812 44.4892 66.411C44.4892 66.4407 44.4892 66.4705 44.4892 66.5003C44.4892 66.53 44.4892 66.5598 44.4892 66.5897C44.4892 66.6195 44.4892 66.6493 44.4892 66.6791C44.4892 66.709 44.4892 66.7388 44.4892 66.7687C44.4892 66.7986 44.4892 66.8285 44.4892 66.8584C44.4892 66.8883 44.4892 66.9182 44.4892 66.9482C44.4892 66.9781 44.4892 67.0081 44.4892 67.0381C44.4892 67.068 44.4892 67.098 44.4892 67.1281C44.4892 67.1581 44.4892 67.1881 44.4892 67.2181C44.4892 67.2482 44.4892 67.2782 44.4892 67.3083C44.4892 67.3384 44.4892 67.3685 44.4892 67.3986C44.4892 67.4287 44.4892 67.4588 44.4892 67.4889C44.4892 67.5191 44.4892 67.5492 44.4892 67.5794C44.4892 67.6095 44.4892 67.6397 44.4892 67.6699C44.4892 67.7001 44.4892 67.7303 44.4892 67.7606C44.4892 67.7908 44.4892 67.821 44.4892 67.8513C44.4892 67.8816 44.4892 67.9118 44.4892 67.9421C44.4892 67.9724 44.4892 68.0027 44.4892 68.033C44.4892 68.0634 44.4892 68.0937 44.4892 68.124C44.4892 68.1544 44.4892 68.1848 44.4892 68.2151C44.4892 68.2455 44.4892 68.2759 44.4892 68.3063C44.4892 68.3367 44.4892 68.3672 44.4892 68.3976C44.4892 68.428 44.4892 68.4585 44.4892 68.489C44.4892 68.5194 44.4892 68.5499 44.4892 68.5804C44.4892 68.6109 44.4892 68.6414 44.4892 68.6719C44.4892 68.7025 44.4892 68.733 44.4892 68.7635C44.4892 68.7941 44.4892 68.8247 44.4892 68.8552C44.4892 68.8858 44.4892 68.9164 44.4892 68.947C44.4892 68.9776 44.4892 69.0083 44.4892 69.0389C44.4892 69.0695 44.4892 69.1002 44.4892 69.1308C44.4892 69.1615 44.4892 69.1922 44.4892 69.2229C44.4892 69.2536 44.4892 69.2843 44.4892 69.315C44.4892 69.3457 44.4892 69.3764 44.4892 69.4072C44.4892 69.4379 44.4892 69.4687 44.4892 69.4994C44.4892 69.5302 44.4892 69.561 44.4892 69.5918C44.4892 69.6226 44.4892 69.6534 44.4892 69.6842C44.4892 69.7151 44.4892 69.7459 44.4892 69.7767C44.4892 69.8076 44.4892 69.8384 44.4892 69.8693C44.4892 69.9002 44.4892 69.9311 44.4892 69.962C44.4892 69.9929 44.4892 70.0238 44.4892 70.0547C44.4892 70.0856 44.4892 70.1166 44.4892 70.1475C44.4892 70.1785 44.4892 70.2094 44.4892 70.2404C44.4892 70.2714 44.4892 70.3024 44.4892 70.3334C44.4892 70.3644 44.4892 70.3954 44.4892 70.4264C44.4892 70.4574 44.4892 70.4885 44.4892 70.5195C44.4892 70.5506 44.4892 70.5816 44.4892 70.6127C44.4892 70.6438 44.4892 70.6748 44.4892 70.7059C44.4892 70.737 44.4892 70.7681 44.4892 70.7992C44.4892 70.8304 44.4892 70.8615 44.4892 70.8926C44.4892 70.9238 44.4892 70.9549 44.4892 70.9861C44.4892 71.0172 44.4892 71.0484 44.4892 71.0796C44.4892 71.1108 44.4892 71.142 44.4892 71.1732C44.4892 71.2044 44.4892 71.2356 44.4892 71.2669C44.4892 71.2981 44.4892 71.3293 44.4892 71.3606C44.4892 71.3918 44.4892 71.4231 44.4892 71.4544C44.4892 71.4856 44.4892 71.5169 44.4892 71.5482C44.4892 71.5795 44.4892 71.6108 44.4892 71.6421C44.4892 71.6735 44.4892 71.7048 44.4892 71.7361C44.4892 71.7675 44.4892 71.7988 44.4892 71.8302C44.4892 71.8615 44.4892 71.8929 44.4892 71.9243C44.4892 71.9557 44.4892 71.987 44.4892 72.0184C44.4892 72.0498 44.4892 72.0813 44.4892 72.1127C44.4892 72.1441 44.4892 72.1755 44.4892 72.207C44.4892 72.2384 44.4892 72.2698 44.4892 72.3013C44.4892 72.3328 44.4892 72.3642 44.4892 72.3957C44.4892 72.4272 44.4892 72.4587 44.4892 72.4902C44.4892 72.5217 44.4892 72.5532 44.4892 72.5847C44.4892 72.6162 44.4892 72.6477 44.4892 72.6793C44.4892 72.7108 44.4892 72.7424 44.4892 72.7739C44.4892 72.8055 44.4892 72.837 44.4892 72.8686C44.4892 72.9002 44.4892 72.9318 44.4892 72.9633C44.4892 72.9949 44.4892 73.0265 44.4892 73.0581C44.4892 73.0898 44.4892 73.1214 44.4892 73.153C44.4892 73.1846 44.4892 73.2163 44.4892 73.2479C44.4892 73.2795 44.4892 73.3112 44.4892 73.3429C44.4892 73.3745 44.4892 73.4062 44.4892 73.4379C44.4892 73.4695 44.4892 73.5012 44.4892 73.5329C44.4892 73.5646 44.4892 73.5963 44.4892 73.628C44.4892 73.6597 44.4892 73.6915 44.4892 73.7232C44.4892 73.7549 44.4892 73.7867 44.4892 73.8184C44.4892 73.8501 44.4892 73.8819 44.4892 73.9136C44.4892 73.9454 44.4892 73.9772 44.4892 74.0089C44.4892 74.0407 44.4892 74.0725 44.4892 74.1043C44.4892 74.1361 44.4892 74.1679 44.4892 74.1997C44.4892 74.2315 44.4892 74.2633 44.4892 74.2951C44.4892 74.3269 44.4892 74.3588 44.4892 74.3906C44.4892 74.4224 44.4892 74.4543 44.4892 74.4861C44.4892 74.518 44.4892 74.5498 44.4892 74.5817C44.4892 74.6136 44.4892 74.6454 44.4892 74.6773C44.4892 74.7092 44.4892 74.7411 44.4892 74.773C44.4892 74.8049 44.4892 74.8368 44.4892 74.8687C44.4892 74.9006 44.4892 74.9325 44.4892 74.9644C44.4892 74.9963 44.4892 75.0282 44.4892 75.0602C44.4892 75.0921 44.4892 75.124 44.4892 75.156C44.4892 75.1879 44.4892 75.2199 44.4892 75.2518C44.4892 75.2838 44.4892 75.3158 44.4892 75.3477C44.4892 75.3797 44.4892 75.4117 44.4892 75.4437C44.4892 75.4756 44.4892 75.5076 44.4892 75.5396C44.4892 75.5716 44.4892 75.6036 44.4892 75.6356C44.4892 75.6676 44.4892 75.6996 44.4892 75.7317C44.4892 75.7637 44.4892 75.7957 44.4892 75.8277C44.4892 75.8597 44.4892 75.8918 44.4892 75.9238C44.4892 75.9559 44.4892 75.9879 44.4892 76.02C44.4892 76.052 44.4892 76.0841 44.4892 76.1161C44.4892 76.1482 44.4892 76.1802 44.4892 76.2123C44.4892 76.2444 44.4892 76.2765 44.4892 76.3085C44.4892 76.3406 44.4892 76.3727 44.4892 76.4048C44.4892 76.4369 44.4892 76.469 44.4892 76.5011C44.4892 76.5332 44.4892 76.5653 44.4892 76.5974C44.4892 76.6295 44.4892 76.6616 44.4892 76.6938C44.4892 76.7259 44.4892 76.758 44.4892 76.7901C44.4892 76.8223 44.4892 76.8544 44.4892 76.8865C44.4892 76.9187 44.4892 76.9508 44.4892 76.983C44.4892 77.0151 44.4892 77.0473 44.4892 77.0794C44.4892 77.1116 44.4892 77.1437 44.4892 77.1759C44.4892 77.208 44.4892 77.2402 44.4892 77.2724C44.4892 77.3046 44.4892 77.3367 44.4892 77.3689C44.4892 77.4011 44.4892 77.4333 44.4892 77.4655C44.4892 77.4976 44.4892 77.5298 44.4892 77.562C44.4892 77.5942 44.4892 77.6264 44.4892 77.6586C44.4892 77.6908 44.4892 77.723 44.4892 77.7552C44.4892 77.7874 44.4892 77.8196 44.4892 77.8519C44.4892 77.8841 44.4892 77.9163 44.4892 77.9485C44.4892 77.9807 44.4892 78.0129 44.4892 78.0452C44.4892 78.0774 44.4892 78.1096 44.4892 78.1419C44.4892 78.1741 44.4892 78.2063 44.4892 78.2386C44.4892 78.2708 44.4892 78.303 44.4892 78.3353C44.4892 78.3675 44.4892 78.3998 44.4892 78.432C44.4892 78.4643 44.4892 78.4965 44.4892 78.5288C44.4892 78.561 44.4892 78.5933 44.4892 78.6255C44.4892 78.6578 44.4892 78.6901 44.4892 78.7223C44.4892 78.7546 44.4892 78.7868 44.4892 78.8191C44.4892 78.8514 44.4892 78.8837 44.4892 78.9159C44.4892 78.9482 44.4892 78.9805 44.4892 79.0127C44.4892 79.045 44.4892 79.0773 44.4892 79.1096C44.4892 79.1418 44.4892 79.1741 44.4892 79.2064C44.4892 79.2387 44.4892 79.271 44.4892 79.3033C44.4892 79.3355 44.4892 79.3678 44.4892 79.4001C44.4892 79.4324 44.4892 79.4647 44.4892 79.497C44.4892 79.5293 44.4892 79.5616 44.4892 79.5939C44.4892 79.6262 44.4892 79.6584 44.4892 79.6907C44.4892 79.723 44.4892 79.7553 44.4892 79.7876C44.4892 79.8199 44.4892 79.8522 44.4892 79.8845C44.4892 79.9168 44.4892 79.9491 44.4892 79.9814C44.4892 80.0137 44.4892 80.046 44.4892 80.0783C44.4892 80.1106 44.4892 80.1429 44.4892 80.1752C44.4892 80.2075 44.4892 80.2398 44.4892 80.2721C44.4892 80.3045 44.4892 80.3368 44.4892 80.3691C44.4892 80.4014 44.4892 80.4337 44.4892 80.466C44.4892 80.4983 44.4892 80.5306 44.4892 80.5629C44.4892 80.5952 44.4892 80.6275 44.4892 80.6598C44.4892 80.6921 44.4892 80.7244 44.4892 80.7567C44.4892 80.789 44.4892 80.8213 44.4892 80.8536C44.4892 80.8859 44.4892 80.9182 44.4892 80.9506C44.4892 80.9829 44.4892 81.0152 44.4892 81.0475C44.4892 81.0798 44.4892 81.1121 44.4892 81.1444C44.4892 81.1767 44.4892 81.209 44.4892 81.2413C44.4892 81.2736 44.4892 81.3059 44.4892 81.3382C44.4892 81.3705 44.4892 81.4028 44.4892 81.4351C44.4892 81.4674 44.4892 81.4997 44.4892 81.532C44.4892 81.5643 44.4892 81.5965 44.4892 81.6288C44.4892 81.6611 44.4892 81.6934 44.4892 81.7257C44.4892 81.758 44.4892 81.7903 44.4892 81.8226C44.4892 81.8549 44.4892 81.8872 44.4892 81.9194C44.4892 81.9517 44.4892 81.984 44.4892 82.0163C44.4892 82.0486 44.4892 82.0809 44.4892 82.1131C44.4892 82.1454 44.4892 82.1777 44.4892 82.21C44.4892 82.2422 44.4892 82.2745 44.4892 82.3068C44.4892 82.3391 44.4892 82.3713 44.4892 82.4036C44.4892 82.4359 44.4892 82.4681 44.4892 82.5004C44.4892 82.5326 44.4892 82.5649 44.4892 82.5972C44.4892 82.6294 44.4892 82.6617 44.4892 82.6939C44.4892 82.7262 44.4892 82.7584 44.4892 82.7907C44.4892 82.8229 44.4892 82.8552 44.4892 82.8874C44.4892 82.9197 44.4892 82.9519 44.4892 82.9841C44.4892 83.0164 44.4892 83.0486 44.4892 83.0808C44.4892 83.1131 44.4892 83.1453 44.4892 83.1775C44.4892 83.2098 44.4892 83.242 44.4892 83.2742C44.4892 83.3064 44.4892 83.3386 44.4892 83.3709C44.4892 83.4031 44.4892 83.4353 44.4892 83.4675C44.4892 83.4997 44.4892 83.5319 44.4892 83.5641C44.4892 83.5963 44.4892 83.6285 44.4892 83.6607C44.4892 83.6929 44.4892 83.7251 44.4892 83.7573C44.4892 83.7894 44.4892 83.8216 44.4892 83.8538C44.4892 83.886 44.4892 83.9182 44.4892 83.9503C44.4892 83.9825 44.4892 84.0147 44.4892 84.0468C44.4892 84.079 44.4892 84.1112 44.4892 84.1433C44.4892 84.1755 44.4892 84.2076 44.4892 84.2398C44.4892 84.2719 44.4892 84.304 44.4892 84.3362C44.4892 84.3683 44.4892 84.4005 44.4892 84.4326C44.4892 84.4647 44.4892 84.4968 44.4892 84.529C44.4892 84.5611 44.4892 84.5932 44.4892 84.6253C44.4892 84.6574 44.4892 84.6895 44.4892 84.7216C44.4892 84.7537 44.4892 84.7858 44.4892 84.8179C44.4892 84.85 44.4892 84.8821 44.4892 84.9142C44.4892 84.9463 44.4892 84.9783 44.4892 85.0104C44.4892 85.0425 44.4892 85.0745 44.4892 85.1066C44.4892 85.1387 44.4892 85.1707 44.4892 85.2028C44.4892 85.2348 44.4892 85.2669 44.4892 85.2989C44.4892 85.331 44.4892 85.363 44.4892 85.395C44.4892 85.427 44.4892 85.4591 44.4892 85.4911C44.4892 85.5231 44.4892 85.5551 44.4892 85.5871C44.4892 85.6191 44.4892 85.6511 44.4892 85.6831C44.4892 85.7151 44.4892 85.7471 44.4892 85.7791C44.4892 85.8111 44.4892 85.843 44.4892 85.875C44.4892 85.907 44.4892 85.9389 44.4892 85.9709C44.4892 86.0029 44.4892 86.0348 44.4892 86.0668C44.4892 86.0987 44.4892 86.1306 44.4892 86.1626C44.4892 86.1945 44.4892 86.2264 44.4892 86.2583C44.4892 86.2903 44.4892 86.3222 44.4892 86.3541C44.4892 86.386 44.4892 86.4179 44.4892 86.4498C44.4892 86.4817 44.4892 86.5136 44.4892 86.5454C44.4892 86.5773 44.4892 86.6092 44.4892 86.641C44.4892 86.6729 44.4892 86.7048 44.4892 86.7366C44.4892 86.7685 44.4892 86.8003 44.4892 86.8321C44.4892 86.864 44.4892 86.8958 44.4892 86.9276C44.4892 86.9595 44.4892 86.9913 44.4892 87.0231C44.4892 87.0549 44.4892 87.0867 44.4892 87.1185C44.4892 87.1503 44.4892 87.182 44.4892 87.2138C44.4892 87.2456 44.4892 87.2774 44.4892 87.3091C44.4892 87.3409 44.4892 87.3726 44.4892 87.4044C44.4892 87.4361 44.4892 87.4679 44.4892 87.4996C44.4892 87.5313 44.4892 87.563 44.4892 87.5947C44.4892 87.6264 44.4892 87.6582 44.4892 87.6898C44.4892 87.7215 44.4892 87.7532 44.4892 87.7849C44.4892 87.8166 44.4892 87.8483 44.4892 87.8799C44.4892 87.9116 44.4892 87.9432 44.4892 87.9749C44.4892 88.0065 44.4892 88.0382 44.4892 88.0698C44.4892 88.1014 44.4892 88.133 44.4892 88.1646C44.4892 88.1962 44.4892 88.2278 44.4892 88.2594C44.4892 88.291 44.4892 88.3226 44.4892 88.3542C44.4892 88.3858 44.4892 88.4173 44.4892 88.4489C44.4892 88.4804 44.4892 88.512 44.4892 88.5435C44.4892 88.575 44.4892 88.6066 44.4892 88.6381C44.4892 88.6696 44.4892 88.7011 44.4892 88.7326C44.4892 88.7641 44.4892 88.7956 44.4892 88.8271C44.4892 88.8586 44.4892 88.89 44.4892 88.9215C44.4892 88.953 44.4892 88.9844 44.4892 89.0158C44.4892 89.0473 44.4892 89.0787 44.4892 89.1101C44.4892 89.1416 44.4892 89.173 44.4892 89.2044C44.4892 89.2358 44.4892 89.2672 44.4892 89.2985C44.4892 89.3299 44.4892 89.3613 44.4892 89.3926C44.4892 89.424 44.4892 89.4554 44.4892 89.4867C44.4892 89.518 44.4892 89.5494 44.4892 89.5807C44.4892 89.612 44.4892 89.6433 44.4892 89.6746C44.4892 89.7059 44.4892 89.7372 44.4892 89.7685C44.4892 89.7997 44.4892 89.831 44.4892 89.8622C44.4892 89.8935 44.4892 89.9247 44.4892 89.956C44.4892 89.9872 44.4892 90.0184 44.4892 90.0496C44.4892 90.0808 44.4892 90.112 44.4892 90.1432C44.4892 90.1744 44.4892 90.2056 44.4892 90.2368C44.4892 90.2679 44.4892 90.2991 44.4892 90.3302C44.4892 90.3614 44.4892 90.3925 44.4892 90.4236C44.4892 90.4547 44.4892 90.4858 44.4892 90.5169C44.4892 90.548 44.4892 90.5791 44.4892 90.6102C44.4892 90.6412 44.4892 90.6723 44.4892 90.7033C44.4892 90.7344 44.4892 90.7654 44.4892 90.7965C44.4892 90.8275 44.4892 90.8585 44.4892 90.8895C44.4892 90.9205 44.4892 90.9515 44.4892 90.9824C44.4892 91.0134 44.4892 91.0444 44.4892 91.0753C44.4892 91.1063 44.4892 91.1372 44.4892 91.1682H45.9892ZM45.2687 49.7672C59.1107 49.2232 69.8965 52.7595 77.6796 58.7744C85.4645 64.7906 90.2993 73.3277 92.1679 82.8821L93.64 82.5941C91.7093 72.7227 86.7002 63.8498 78.5969 57.5875C70.4917 51.3238 59.3448 47.7129 45.2097 48.2684L45.2687 49.7672ZM92.154 82.7381V119.024H93.654V82.7381H92.154ZM92.154 119.024V183.899H93.654V119.024H92.154ZM59.0294 119.676C68.1521 124.87 82.6495 127.954 93.3646 119.616L92.4434 118.432C82.4346 126.221 68.6723 123.44 59.7716 118.372L59.0294 119.676ZM106.937 183.899V120.555H105.437V183.899H106.937ZM120.204 183.899V91.2375H118.704V183.899H120.204ZM151.604 183.899V163.254H150.104V183.899H151.604ZM151.604 163.254C151.604 161.436 150.88 159.07 149.441 156.81C147.994 154.537 145.793 152.325 142.781 150.85L142.121 152.197C144.858 153.537 146.859 155.548 148.176 157.615C149.501 159.696 150.104 161.787 150.104 163.254H151.604Z" fill="#F9F2F2"/>
</svg>
