<svg width="162" height="138" viewBox="0 0 162 138" fill="none" xmlns="http://www.w3.org/2000/svg">
<path d="M16.0003 28.3933V11.5276C16.0003 8.76271 18.0003 4.6154 24.0003 4.6154H35.3337C39.3337 4.6154 43.0003 8.20974 43.0003 11.5276V28.3933M16.0003 28.3933H43.0003M16.0003 28.3933C8.33366 33.9231 1.66699 45.8121 1.66699 53.0007V121.57C1.66698 124.058 3.33366 127.929 9.00033 127.929H39.0179M43.0003 28.3933C48.667 32.8171 57.3337 44.4296 57.3337 51.0653V80.615M57.3337 80.615V80.6495M57.3337 80.615C47.4066 82.5635 39.311 87.9086 35.3337 95.8563M57.3337 80.615C65.7099 78.9709 75.39 79.745 85.0003 83.4144C90.667 85.578 96.0003 85.9028 96.0003 78.1611C96.0003 75.9492 95.0003 73.5714 92.3337 70.696C108.334 70.696 118 84.5203 118 95.8563M39.0179 127.929C43.0052 131.988 47.1075 134.971 50.3337 136.5H97.0003C113 127.929 115 118.252 118.667 112.999C121 111.616 121.667 111.34 124.334 109.957C133.115 105.405 134.111 98.6212 134.334 95.8563H118M39.0179 127.929C31.4697 120.244 24.3337 108.701 24.3337 95.8563H35.3337M35.3337 95.8563H118M104.334 30.6392L100.667 31.7112C106 45.8121 116.334 54.9362 126 57.701L161 124.058L140.334 53.5537C141.334 47.471 152.334 41.3883 141.334 19.8222L137.667 20.8942M104.334 30.6392L95.3337 10.9746M104.334 30.6392L115.667 27.3259M115.667 27.3259L106.667 7.38028M115.667 27.3259L126.667 24.11M126.667 24.11L118 4.33891M126.667 24.11L137.667 20.8942M137.667 20.8942L129.334 1.29755" stroke="#F9F2F2" stroke-width="1.5" stroke-linecap="round" stroke-linejoin="round" stroke-dasharray="0.1 0.1"/>
</svg>
